<mxfile host="app.diagrams.net" modified="2021-10-10T09:06:02.801Z" agent="5.0 (Windows NT 10.0; Win64; x64) AppleWebKit/537.36 (KHTML, like Gecko) Chrome/94.0.4606.71 Safari/537.36" etag="YG-WLCi2rkY0y5eL2UJh" version="15.5.0" type="github">
  <diagram id="EWB7fa3S_ygzSkUGieSo" name="Page-1">
    <mxGraphModel dx="1278" dy="497" grid="1" gridSize="10" guides="1" tooltips="1" connect="1" arrows="1" fold="1" page="1" pageScale="1" pageWidth="827" pageHeight="1169" math="0" shadow="0">
      <root>
        <mxCell id="0" />
        <mxCell id="1" parent="0" />
        <mxCell id="tijTf-BQtwKL5IISNSBW-1" value="" style="rhombus;whiteSpace=wrap;html=1;" vertex="1" parent="1">
          <mxGeometry x="700" y="150" width="60" height="60" as="geometry" />
        </mxCell>
        <mxCell id="tijTf-BQtwKL5IISNSBW-96" style="edgeStyle=none;rounded=0;orthogonalLoop=1;jettySize=auto;html=1;entryX=0.104;entryY=0.582;entryDx=0;entryDy=0;entryPerimeter=0;fontFamily=Times New Roman;fontSize=16;" edge="1" parent="1" source="tijTf-BQtwKL5IISNSBW-2" target="tijTf-BQtwKL5IISNSBW-9">
          <mxGeometry relative="1" as="geometry" />
        </mxCell>
        <mxCell id="tijTf-BQtwKL5IISNSBW-108" style="edgeStyle=none;rounded=0;orthogonalLoop=1;jettySize=auto;html=1;entryX=0.25;entryY=0;entryDx=0;entryDy=0;fontFamily=Times New Roman;fontSize=16;" edge="1" parent="1" source="tijTf-BQtwKL5IISNSBW-2" target="tijTf-BQtwKL5IISNSBW-39">
          <mxGeometry relative="1" as="geometry" />
        </mxCell>
        <mxCell id="tijTf-BQtwKL5IISNSBW-186" style="edgeStyle=none;rounded=0;orthogonalLoop=1;jettySize=auto;html=1;entryX=0.5;entryY=0;entryDx=0;entryDy=0;fontFamily=Times New Roman;fontSize=16;startArrow=none;" edge="1" parent="1" source="tijTf-BQtwKL5IISNSBW-207" target="tijTf-BQtwKL5IISNSBW-182">
          <mxGeometry relative="1" as="geometry" />
        </mxCell>
        <mxCell id="tijTf-BQtwKL5IISNSBW-241" style="edgeStyle=none;rounded=0;orthogonalLoop=1;jettySize=auto;html=1;entryX=0;entryY=1;entryDx=0;entryDy=0;fontFamily=Times New Roman;fontSize=16;" edge="1" parent="1" source="tijTf-BQtwKL5IISNSBW-2" target="tijTf-BQtwKL5IISNSBW-237">
          <mxGeometry relative="1" as="geometry" />
        </mxCell>
        <mxCell id="tijTf-BQtwKL5IISNSBW-2" value="" style="whiteSpace=wrap;html=1;aspect=fixed;fontFamily=Times New Roman;fontSize=16;" vertex="1" parent="1">
          <mxGeometry x="10" y="220" width="45" height="45" as="geometry" />
        </mxCell>
        <mxCell id="tijTf-BQtwKL5IISNSBW-83" style="edgeStyle=none;rounded=0;orthogonalLoop=1;jettySize=auto;html=1;entryX=0.5;entryY=1;entryDx=0;entryDy=0;fontFamily=Times New Roman;fontSize=16;" edge="1" parent="1" source="tijTf-BQtwKL5IISNSBW-3" target="tijTf-BQtwKL5IISNSBW-4">
          <mxGeometry relative="1" as="geometry" />
        </mxCell>
        <mxCell id="tijTf-BQtwKL5IISNSBW-91" style="edgeStyle=none;rounded=0;orthogonalLoop=1;jettySize=auto;html=1;entryX=1;entryY=0.75;entryDx=0;entryDy=0;fontFamily=Times New Roman;fontSize=16;" edge="1" parent="1" source="tijTf-BQtwKL5IISNSBW-3" target="tijTf-BQtwKL5IISNSBW-88">
          <mxGeometry relative="1" as="geometry" />
        </mxCell>
        <mxCell id="tijTf-BQtwKL5IISNSBW-106" style="edgeStyle=none;rounded=0;orthogonalLoop=1;jettySize=auto;html=1;entryX=0;entryY=0.5;entryDx=0;entryDy=0;fontFamily=Times New Roman;fontSize=16;" edge="1" parent="1" source="tijTf-BQtwKL5IISNSBW-3" target="tijTf-BQtwKL5IISNSBW-18">
          <mxGeometry relative="1" as="geometry" />
        </mxCell>
        <mxCell id="tijTf-BQtwKL5IISNSBW-124" style="edgeStyle=none;rounded=0;orthogonalLoop=1;jettySize=auto;html=1;fontFamily=Times New Roman;fontSize=16;" edge="1" parent="1" source="tijTf-BQtwKL5IISNSBW-3" target="tijTf-BQtwKL5IISNSBW-22">
          <mxGeometry relative="1" as="geometry" />
        </mxCell>
        <mxCell id="tijTf-BQtwKL5IISNSBW-146" style="edgeStyle=none;rounded=0;orthogonalLoop=1;jettySize=auto;html=1;entryX=0.688;entryY=0.188;entryDx=0;entryDy=0;entryPerimeter=0;fontFamily=Times New Roman;fontSize=16;" edge="1" parent="1" source="tijTf-BQtwKL5IISNSBW-3" target="tijTf-BQtwKL5IISNSBW-143">
          <mxGeometry relative="1" as="geometry" />
        </mxCell>
        <mxCell id="tijTf-BQtwKL5IISNSBW-158" style="edgeStyle=none;rounded=0;orthogonalLoop=1;jettySize=auto;html=1;entryX=0;entryY=0.25;entryDx=0;entryDy=0;fontFamily=Times New Roman;fontSize=16;" edge="1" parent="1" source="tijTf-BQtwKL5IISNSBW-3" target="tijTf-BQtwKL5IISNSBW-155">
          <mxGeometry relative="1" as="geometry" />
        </mxCell>
        <mxCell id="tijTf-BQtwKL5IISNSBW-3" value="" style="whiteSpace=wrap;html=1;aspect=fixed;" vertex="1" parent="1">
          <mxGeometry x="255" y="265" width="60" height="60" as="geometry" />
        </mxCell>
        <mxCell id="tijTf-BQtwKL5IISNSBW-84" style="edgeStyle=none;rounded=0;orthogonalLoop=1;jettySize=auto;html=1;entryX=0.6;entryY=1.048;entryDx=0;entryDy=0;entryPerimeter=0;fontFamily=Times New Roman;fontSize=16;" edge="1" parent="1" source="tijTf-BQtwKL5IISNSBW-4" target="tijTf-BQtwKL5IISNSBW-5">
          <mxGeometry relative="1" as="geometry" />
        </mxCell>
        <mxCell id="tijTf-BQtwKL5IISNSBW-4" value="" style="rhombus;whiteSpace=wrap;html=1;" vertex="1" parent="1">
          <mxGeometry x="260" y="152.5" width="80" height="65" as="geometry" />
        </mxCell>
        <mxCell id="tijTf-BQtwKL5IISNSBW-5" value="" style="whiteSpace=wrap;html=1;aspect=fixed;" vertex="1" parent="1">
          <mxGeometry x="470" y="120" width="70" height="70" as="geometry" />
        </mxCell>
        <mxCell id="tijTf-BQtwKL5IISNSBW-6" value="" style="rhombus;whiteSpace=wrap;html=1;" vertex="1" parent="1">
          <mxGeometry x="110" y="212.5" width="80" height="40" as="geometry" />
        </mxCell>
        <mxCell id="tijTf-BQtwKL5IISNSBW-7" value="" style="whiteSpace=wrap;html=1;aspect=fixed;" vertex="1" parent="1">
          <mxGeometry x="495" y="215" width="60" height="60" as="geometry" />
        </mxCell>
        <mxCell id="tijTf-BQtwKL5IISNSBW-98" style="edgeStyle=none;rounded=0;orthogonalLoop=1;jettySize=auto;html=1;entryX=0;entryY=0.5;entryDx=0;entryDy=0;fontFamily=Times New Roman;fontSize=16;" edge="1" parent="1" source="tijTf-BQtwKL5IISNSBW-9" target="tijTf-BQtwKL5IISNSBW-10">
          <mxGeometry relative="1" as="geometry" />
        </mxCell>
        <mxCell id="tijTf-BQtwKL5IISNSBW-9" value="" style="rhombus;whiteSpace=wrap;html=1;" vertex="1" parent="1">
          <mxGeometry x="120" y="18.75" width="80" height="65" as="geometry" />
        </mxCell>
        <mxCell id="tijTf-BQtwKL5IISNSBW-100" style="edgeStyle=none;rounded=0;orthogonalLoop=1;jettySize=auto;html=1;entryX=0;entryY=0.5;entryDx=0;entryDy=0;fontFamily=Times New Roman;fontSize=16;" edge="1" parent="1" source="tijTf-BQtwKL5IISNSBW-10" target="tijTf-BQtwKL5IISNSBW-12">
          <mxGeometry relative="1" as="geometry" />
        </mxCell>
        <mxCell id="tijTf-BQtwKL5IISNSBW-10" value="" style="whiteSpace=wrap;html=1;aspect=fixed;" vertex="1" parent="1">
          <mxGeometry x="275" y="15" width="65" height="65" as="geometry" />
        </mxCell>
        <mxCell id="tijTf-BQtwKL5IISNSBW-101" style="edgeStyle=none;rounded=0;orthogonalLoop=1;jettySize=auto;html=1;entryX=0.013;entryY=0.433;entryDx=0;entryDy=0;entryPerimeter=0;fontFamily=Times New Roman;fontSize=16;" edge="1" parent="1" source="tijTf-BQtwKL5IISNSBW-12" target="tijTf-BQtwKL5IISNSBW-13">
          <mxGeometry relative="1" as="geometry" />
        </mxCell>
        <mxCell id="tijTf-BQtwKL5IISNSBW-12" value="" style="rhombus;whiteSpace=wrap;html=1;" vertex="1" parent="1">
          <mxGeometry x="400" y="11.25" width="80" height="80" as="geometry" />
        </mxCell>
        <mxCell id="tijTf-BQtwKL5IISNSBW-173" style="edgeStyle=none;rounded=0;orthogonalLoop=1;jettySize=auto;html=1;fontFamily=Times New Roman;fontSize=16;" edge="1" parent="1" source="tijTf-BQtwKL5IISNSBW-13">
          <mxGeometry relative="1" as="geometry">
            <mxPoint x="780" y="350" as="targetPoint" />
          </mxGeometry>
        </mxCell>
        <mxCell id="tijTf-BQtwKL5IISNSBW-13" value="" style="whiteSpace=wrap;html=1;aspect=fixed;" vertex="1" parent="1">
          <mxGeometry x="530" y="7.5" width="80" height="80" as="geometry" />
        </mxCell>
        <mxCell id="tijTf-BQtwKL5IISNSBW-111" style="edgeStyle=none;rounded=0;orthogonalLoop=1;jettySize=auto;html=1;entryX=0;entryY=0.5;entryDx=0;entryDy=0;fontFamily=Times New Roman;fontSize=16;" edge="1" parent="1" source="tijTf-BQtwKL5IISNSBW-15" target="tijTf-BQtwKL5IISNSBW-23">
          <mxGeometry relative="1" as="geometry" />
        </mxCell>
        <mxCell id="tijTf-BQtwKL5IISNSBW-15" value="" style="rhombus;whiteSpace=wrap;html=1;" vertex="1" parent="1">
          <mxGeometry x="100" y="300" width="80" height="80" as="geometry" />
        </mxCell>
        <mxCell id="tijTf-BQtwKL5IISNSBW-107" style="edgeStyle=none;rounded=0;orthogonalLoop=1;jettySize=auto;html=1;entryX=0;entryY=0.5;entryDx=0;entryDy=0;fontFamily=Times New Roman;fontSize=16;" edge="1" parent="1" source="tijTf-BQtwKL5IISNSBW-18" target="tijTf-BQtwKL5IISNSBW-34">
          <mxGeometry relative="1" as="geometry" />
        </mxCell>
        <mxCell id="tijTf-BQtwKL5IISNSBW-18" value="" style="rhombus;whiteSpace=wrap;html=1;" vertex="1" parent="1">
          <mxGeometry x="350" y="205" width="80" height="80" as="geometry" />
        </mxCell>
        <mxCell id="tijTf-BQtwKL5IISNSBW-172" style="edgeStyle=none;rounded=0;orthogonalLoop=1;jettySize=auto;html=1;fontFamily=Times New Roman;fontSize=16;" edge="1" parent="1" source="tijTf-BQtwKL5IISNSBW-20">
          <mxGeometry relative="1" as="geometry">
            <mxPoint x="780" y="350" as="targetPoint" />
          </mxGeometry>
        </mxCell>
        <mxCell id="tijTf-BQtwKL5IISNSBW-199" style="edgeStyle=none;rounded=0;orthogonalLoop=1;jettySize=auto;html=1;entryX=0;entryY=0;entryDx=0;entryDy=0;fontFamily=Times New Roman;fontSize=16;" edge="1" parent="1" source="tijTf-BQtwKL5IISNSBW-20" target="tijTf-BQtwKL5IISNSBW-197">
          <mxGeometry relative="1" as="geometry" />
        </mxCell>
        <mxCell id="tijTf-BQtwKL5IISNSBW-200" style="edgeStyle=none;rounded=0;orthogonalLoop=1;jettySize=auto;html=1;entryX=0.25;entryY=0;entryDx=0;entryDy=0;fontFamily=Times New Roman;fontSize=16;" edge="1" parent="1" source="tijTf-BQtwKL5IISNSBW-20" target="tijTf-BQtwKL5IISNSBW-198">
          <mxGeometry relative="1" as="geometry" />
        </mxCell>
        <mxCell id="tijTf-BQtwKL5IISNSBW-20" value="" style="whiteSpace=wrap;html=1;aspect=fixed;" vertex="1" parent="1">
          <mxGeometry x="370" y="446.5" width="70" height="70" as="geometry" />
        </mxCell>
        <mxCell id="tijTf-BQtwKL5IISNSBW-125" style="edgeStyle=none;rounded=0;orthogonalLoop=1;jettySize=auto;html=1;fontFamily=Times New Roman;fontSize=16;" edge="1" parent="1" source="tijTf-BQtwKL5IISNSBW-22" target="tijTf-BQtwKL5IISNSBW-122">
          <mxGeometry relative="1" as="geometry" />
        </mxCell>
        <mxCell id="tijTf-BQtwKL5IISNSBW-22" value="" style="rhombus;whiteSpace=wrap;html=1;" vertex="1" parent="1">
          <mxGeometry x="210" y="355" width="80" height="80" as="geometry" />
        </mxCell>
        <mxCell id="tijTf-BQtwKL5IISNSBW-23" value="" style="whiteSpace=wrap;html=1;aspect=fixed;" vertex="1" parent="1">
          <mxGeometry x="120" y="420" width="73" height="73" as="geometry" />
        </mxCell>
        <mxCell id="tijTf-BQtwKL5IISNSBW-177" style="edgeStyle=none;rounded=0;orthogonalLoop=1;jettySize=auto;html=1;entryX=0;entryY=0;entryDx=0;entryDy=0;fontFamily=Times New Roman;fontSize=16;" edge="1" parent="1" source="tijTf-BQtwKL5IISNSBW-26" target="tijTf-BQtwKL5IISNSBW-175">
          <mxGeometry relative="1" as="geometry" />
        </mxCell>
        <mxCell id="tijTf-BQtwKL5IISNSBW-26" value="Bệnh nhân" style="text;html=1;strokeColor=none;fillColor=none;align=center;verticalAlign=middle;whiteSpace=wrap;rounded=0;fontFamily=Times New Roman;fontSize=16;" vertex="1" parent="1">
          <mxGeometry x="5" y="222.5" width="60" height="30" as="geometry" />
        </mxCell>
        <mxCell id="tijTf-BQtwKL5IISNSBW-27" value="được" style="text;html=1;strokeColor=none;fillColor=none;align=center;verticalAlign=middle;whiteSpace=wrap;rounded=0;fontFamily=Times New Roman;fontSize=16;" vertex="1" parent="1">
          <mxGeometry x="700" y="170" width="60" height="30" as="geometry" />
        </mxCell>
        <mxCell id="tijTf-BQtwKL5IISNSBW-29" value="Khám" style="text;html=1;strokeColor=none;fillColor=none;align=center;verticalAlign=middle;whiteSpace=wrap;rounded=0;fontFamily=Times New Roman;fontSize=16;" vertex="1" parent="1">
          <mxGeometry x="265" y="167.5" width="60" height="42.5" as="geometry" />
        </mxCell>
        <mxCell id="tijTf-BQtwKL5IISNSBW-30" value="Phòng khám" style="text;html=1;strokeColor=none;fillColor=none;align=center;verticalAlign=middle;whiteSpace=wrap;rounded=0;fontFamily=Times New Roman;fontSize=16;" vertex="1" parent="1">
          <mxGeometry x="480" y="146.25" width="60" height="30" as="geometry" />
        </mxCell>
        <mxCell id="tijTf-BQtwKL5IISNSBW-31" value="" style="rhombus;whiteSpace=wrap;html=1;fontFamily=Times New Roman;fontSize=16;" vertex="1" parent="1">
          <mxGeometry x="259" y="265" width="56" height="60" as="geometry" />
        </mxCell>
        <mxCell id="tijTf-BQtwKL5IISNSBW-105" style="edgeStyle=none;rounded=0;orthogonalLoop=1;jettySize=auto;html=1;exitX=0.75;exitY=0;exitDx=0;exitDy=0;entryX=1;entryY=0.25;entryDx=0;entryDy=0;fontFamily=Times New Roman;fontSize=16;" edge="1" parent="1" source="tijTf-BQtwKL5IISNSBW-32" target="tijTf-BQtwKL5IISNSBW-3">
          <mxGeometry relative="1" as="geometry" />
        </mxCell>
        <mxCell id="tijTf-BQtwKL5IISNSBW-32" value="Bác sĩ" style="text;html=1;strokeColor=none;fillColor=none;align=center;verticalAlign=middle;whiteSpace=wrap;rounded=0;fontFamily=Times New Roman;fontSize=16;" vertex="1" parent="1">
          <mxGeometry x="253" y="280" width="70" height="25" as="geometry" />
        </mxCell>
        <mxCell id="tijTf-BQtwKL5IISNSBW-34" value="Bệnh án khám" style="text;html=1;strokeColor=none;fillColor=none;align=center;verticalAlign=middle;whiteSpace=wrap;rounded=0;fontFamily=Times New Roman;fontSize=16;" vertex="1" parent="1">
          <mxGeometry x="495" y="225" width="60" height="30" as="geometry" />
        </mxCell>
        <mxCell id="tijTf-BQtwKL5IISNSBW-35" value="Sử dụng" style="text;html=1;strokeColor=none;fillColor=none;align=center;verticalAlign=middle;whiteSpace=wrap;rounded=0;fontFamily=Times New Roman;fontSize=16;" vertex="1" parent="1">
          <mxGeometry x="130" y="36.25" width="60" height="30" as="geometry" />
        </mxCell>
        <mxCell id="tijTf-BQtwKL5IISNSBW-219" style="edgeStyle=none;rounded=0;orthogonalLoop=1;jettySize=auto;html=1;fontFamily=Times New Roman;fontSize=16;" edge="1" parent="1" source="tijTf-BQtwKL5IISNSBW-36">
          <mxGeometry relative="1" as="geometry">
            <mxPoint x="750" y="10" as="targetPoint" />
          </mxGeometry>
        </mxCell>
        <mxCell id="tijTf-BQtwKL5IISNSBW-36" value="Dịch vụ" style="text;html=1;strokeColor=none;fillColor=none;align=center;verticalAlign=middle;whiteSpace=wrap;rounded=0;fontFamily=Times New Roman;fontSize=16;" vertex="1" parent="1">
          <mxGeometry x="280" y="20" width="60" height="32.5" as="geometry" />
        </mxCell>
        <mxCell id="tijTf-BQtwKL5IISNSBW-37" value="Phiếu dịch vụ" style="text;html=1;strokeColor=none;fillColor=none;align=center;verticalAlign=middle;whiteSpace=wrap;rounded=0;fontFamily=Times New Roman;fontSize=16;" vertex="1" parent="1">
          <mxGeometry x="540" y="36.25" width="60" height="30" as="geometry" />
        </mxCell>
        <mxCell id="tijTf-BQtwKL5IISNSBW-38" value="Có" style="text;html=1;strokeColor=none;fillColor=none;align=center;verticalAlign=middle;whiteSpace=wrap;rounded=0;fontFamily=Times New Roman;fontSize=16;" vertex="1" parent="1">
          <mxGeometry x="410" y="28.75" width="60" height="30" as="geometry" />
        </mxCell>
        <mxCell id="tijTf-BQtwKL5IISNSBW-39" value="Nhập viện" style="text;html=1;strokeColor=none;fillColor=none;align=center;verticalAlign=middle;whiteSpace=wrap;rounded=0;fontFamily=Times New Roman;fontSize=16;" vertex="1" parent="1">
          <mxGeometry x="110" y="325" width="60" height="30" as="geometry" />
        </mxCell>
        <mxCell id="tijTf-BQtwKL5IISNSBW-45" style="edgeStyle=none;rounded=0;orthogonalLoop=1;jettySize=auto;html=1;exitX=0;exitY=0;exitDx=0;exitDy=0;fontFamily=Times New Roman;fontSize=16;" edge="1" parent="1" source="tijTf-BQtwKL5IISNSBW-31" target="tijTf-BQtwKL5IISNSBW-31">
          <mxGeometry relative="1" as="geometry" />
        </mxCell>
        <mxCell id="tijTf-BQtwKL5IISNSBW-56" value="Lập" style="text;html=1;strokeColor=none;fillColor=none;align=center;verticalAlign=middle;whiteSpace=wrap;rounded=0;fontFamily=Times New Roman;fontSize=16;" vertex="1" parent="1">
          <mxGeometry x="365" y="230" width="60" height="30" as="geometry" />
        </mxCell>
        <mxCell id="tijTf-BQtwKL5IISNSBW-57" value="Bệnh án điều trị" style="text;html=1;strokeColor=none;fillColor=none;align=center;verticalAlign=middle;whiteSpace=wrap;rounded=0;fontFamily=Times New Roman;fontSize=16;" vertex="1" parent="1">
          <mxGeometry x="380" y="460" width="60" height="30" as="geometry" />
        </mxCell>
        <mxCell id="tijTf-BQtwKL5IISNSBW-59" style="edgeStyle=none;rounded=0;orthogonalLoop=1;jettySize=auto;html=1;exitX=1;exitY=1;exitDx=0;exitDy=0;fontFamily=Times New Roman;fontSize=16;" edge="1" parent="1">
          <mxGeometry relative="1" as="geometry">
            <mxPoint x="383" y="200" as="sourcePoint" />
            <mxPoint x="383" y="200" as="targetPoint" />
          </mxGeometry>
        </mxCell>
        <mxCell id="tijTf-BQtwKL5IISNSBW-69" style="edgeStyle=none;rounded=0;orthogonalLoop=1;jettySize=auto;html=1;exitX=0;exitY=0;exitDx=0;exitDy=0;fontFamily=Times New Roman;fontSize=16;" edge="1" parent="1">
          <mxGeometry relative="1" as="geometry">
            <mxPoint x="80" y="466.5" as="sourcePoint" />
            <mxPoint x="80" y="466.5" as="targetPoint" />
          </mxGeometry>
        </mxCell>
        <mxCell id="tijTf-BQtwKL5IISNSBW-70" style="edgeStyle=none;rounded=0;orthogonalLoop=1;jettySize=auto;html=1;exitX=0.5;exitY=0;exitDx=0;exitDy=0;fontFamily=Times New Roman;fontSize=16;" edge="1" parent="1" source="tijTf-BQtwKL5IISNSBW-3" target="tijTf-BQtwKL5IISNSBW-3">
          <mxGeometry relative="1" as="geometry" />
        </mxCell>
        <mxCell id="tijTf-BQtwKL5IISNSBW-72" style="edgeStyle=none;rounded=0;orthogonalLoop=1;jettySize=auto;html=1;exitX=0.75;exitY=1;exitDx=0;exitDy=0;fontFamily=Times New Roman;fontSize=16;" edge="1" parent="1" source="tijTf-BQtwKL5IISNSBW-7" target="tijTf-BQtwKL5IISNSBW-7">
          <mxGeometry relative="1" as="geometry" />
        </mxCell>
        <mxCell id="tijTf-BQtwKL5IISNSBW-76" style="edgeStyle=none;rounded=0;orthogonalLoop=1;jettySize=auto;html=1;entryX=1;entryY=1;entryDx=0;entryDy=0;fontFamily=Times New Roman;fontSize=16;" edge="1" parent="1" source="tijTf-BQtwKL5IISNSBW-5" target="tijTf-BQtwKL5IISNSBW-5">
          <mxGeometry relative="1" as="geometry" />
        </mxCell>
        <mxCell id="tijTf-BQtwKL5IISNSBW-92" value="" style="edgeStyle=none;rounded=0;orthogonalLoop=1;jettySize=auto;html=1;fontFamily=Times New Roman;fontSize=16;" edge="1" parent="1" source="tijTf-BQtwKL5IISNSBW-88" target="tijTf-BQtwKL5IISNSBW-26">
          <mxGeometry relative="1" as="geometry" />
        </mxCell>
        <mxCell id="tijTf-BQtwKL5IISNSBW-88" value="Yêu cầu" style="text;html=1;strokeColor=none;fillColor=none;align=center;verticalAlign=middle;whiteSpace=wrap;rounded=0;fontFamily=Times New Roman;fontSize=16;" vertex="1" parent="1">
          <mxGeometry x="120" y="217.5" width="60" height="30" as="geometry" />
        </mxCell>
        <mxCell id="tijTf-BQtwKL5IISNSBW-93" style="edgeStyle=none;rounded=0;orthogonalLoop=1;jettySize=auto;html=1;exitX=0.5;exitY=1;exitDx=0;exitDy=0;fontFamily=Times New Roman;fontSize=16;" edge="1" parent="1" source="tijTf-BQtwKL5IISNSBW-36" target="tijTf-BQtwKL5IISNSBW-36">
          <mxGeometry relative="1" as="geometry" />
        </mxCell>
        <mxCell id="tijTf-BQtwKL5IISNSBW-103" style="edgeStyle=none;rounded=0;orthogonalLoop=1;jettySize=auto;html=1;exitX=1;exitY=1;exitDx=0;exitDy=0;fontFamily=Times New Roman;fontSize=16;" edge="1" parent="1" source="tijTf-BQtwKL5IISNSBW-4" target="tijTf-BQtwKL5IISNSBW-4">
          <mxGeometry relative="1" as="geometry" />
        </mxCell>
        <mxCell id="tijTf-BQtwKL5IISNSBW-205" style="edgeStyle=none;rounded=0;orthogonalLoop=1;jettySize=auto;html=1;entryX=0.5;entryY=0;entryDx=0;entryDy=0;fontFamily=Times New Roman;fontSize=16;" edge="1" parent="1" source="tijTf-BQtwKL5IISNSBW-110" target="tijTf-BQtwKL5IISNSBW-204">
          <mxGeometry relative="1" as="geometry" />
        </mxCell>
        <mxCell id="tijTf-BQtwKL5IISNSBW-206" style="edgeStyle=none;rounded=0;orthogonalLoop=1;jettySize=auto;html=1;fontFamily=Times New Roman;fontSize=16;" edge="1" parent="1" source="tijTf-BQtwKL5IISNSBW-110" target="tijTf-BQtwKL5IISNSBW-202">
          <mxGeometry relative="1" as="geometry" />
        </mxCell>
        <mxCell id="tijTf-BQtwKL5IISNSBW-210" style="edgeStyle=none;rounded=0;orthogonalLoop=1;jettySize=auto;html=1;entryX=1;entryY=0;entryDx=0;entryDy=0;fontFamily=Times New Roman;fontSize=16;" edge="1" parent="1" source="tijTf-BQtwKL5IISNSBW-110" target="tijTf-BQtwKL5IISNSBW-207">
          <mxGeometry relative="1" as="geometry" />
        </mxCell>
        <mxCell id="tijTf-BQtwKL5IISNSBW-110" value="Giấy nhập viện" style="text;html=1;strokeColor=none;fillColor=none;align=center;verticalAlign=middle;whiteSpace=wrap;rounded=0;fontFamily=Times New Roman;fontSize=16;" vertex="1" parent="1">
          <mxGeometry x="130" y="426.5" width="60" height="60" as="geometry" />
        </mxCell>
        <mxCell id="tijTf-BQtwKL5IISNSBW-115" style="edgeStyle=none;rounded=0;orthogonalLoop=1;jettySize=auto;html=1;exitX=0.5;exitY=1;exitDx=0;exitDy=0;fontFamily=Times New Roman;fontSize=16;" edge="1" parent="1">
          <mxGeometry relative="1" as="geometry">
            <mxPoint x="395" y="440" as="sourcePoint" />
            <mxPoint x="395" y="440" as="targetPoint" />
          </mxGeometry>
        </mxCell>
        <mxCell id="tijTf-BQtwKL5IISNSBW-119" style="edgeStyle=none;rounded=0;orthogonalLoop=1;jettySize=auto;html=1;exitX=1;exitY=1;exitDx=0;exitDy=0;fontFamily=Times New Roman;fontSize=16;" edge="1" parent="1">
          <mxGeometry relative="1" as="geometry">
            <mxPoint x="120" y="506.5" as="sourcePoint" />
            <mxPoint x="120" y="506.5" as="targetPoint" />
          </mxGeometry>
        </mxCell>
        <mxCell id="tijTf-BQtwKL5IISNSBW-120" value="Thuộc" style="text;html=1;strokeColor=none;fillColor=none;align=center;verticalAlign=middle;whiteSpace=wrap;rounded=0;fontFamily=Times New Roman;fontSize=16;" vertex="1" parent="1">
          <mxGeometry x="220" y="379" width="60" height="30" as="geometry" />
        </mxCell>
        <mxCell id="tijTf-BQtwKL5IISNSBW-135" style="edgeStyle=none;rounded=0;orthogonalLoop=1;jettySize=auto;html=1;entryX=0.5;entryY=0;entryDx=0;entryDy=0;fontFamily=Times New Roman;fontSize=16;" edge="1" parent="1" source="tijTf-BQtwKL5IISNSBW-122" target="tijTf-BQtwKL5IISNSBW-126">
          <mxGeometry relative="1" as="geometry" />
        </mxCell>
        <mxCell id="tijTf-BQtwKL5IISNSBW-122" value="" style="whiteSpace=wrap;html=1;aspect=fixed;fontFamily=Times New Roman;fontSize=16;" vertex="1" parent="1">
          <mxGeometry x="245" y="460" width="80" height="80" as="geometry" />
        </mxCell>
        <mxCell id="tijTf-BQtwKL5IISNSBW-123" value="Khoa" style="text;html=1;strokeColor=none;fillColor=none;align=center;verticalAlign=middle;whiteSpace=wrap;rounded=0;fontFamily=Times New Roman;fontSize=16;" vertex="1" parent="1">
          <mxGeometry x="260" y="478" width="60" height="30" as="geometry" />
        </mxCell>
        <mxCell id="tijTf-BQtwKL5IISNSBW-136" style="edgeStyle=none;rounded=0;orthogonalLoop=1;jettySize=auto;html=1;entryX=0.404;entryY=-0.023;entryDx=0;entryDy=0;entryPerimeter=0;fontFamily=Times New Roman;fontSize=16;" edge="1" parent="1" source="tijTf-BQtwKL5IISNSBW-126" target="tijTf-BQtwKL5IISNSBW-128">
          <mxGeometry relative="1" as="geometry" />
        </mxCell>
        <mxCell id="tijTf-BQtwKL5IISNSBW-126" value="" style="rhombus;whiteSpace=wrap;html=1;fontFamily=Times New Roman;fontSize=16;" vertex="1" parent="1">
          <mxGeometry x="245" y="564" width="80" height="70" as="geometry" />
        </mxCell>
        <mxCell id="tijTf-BQtwKL5IISNSBW-127" value="Có" style="text;html=1;strokeColor=none;fillColor=none;align=center;verticalAlign=middle;whiteSpace=wrap;rounded=0;fontFamily=Times New Roman;fontSize=16;" vertex="1" parent="1">
          <mxGeometry x="257" y="584" width="60" height="30" as="geometry" />
        </mxCell>
        <mxCell id="tijTf-BQtwKL5IISNSBW-137" style="edgeStyle=none;rounded=0;orthogonalLoop=1;jettySize=auto;html=1;fontFamily=Times New Roman;fontSize=16;" edge="1" parent="1" source="tijTf-BQtwKL5IISNSBW-128" target="tijTf-BQtwKL5IISNSBW-130">
          <mxGeometry relative="1" as="geometry" />
        </mxCell>
        <mxCell id="tijTf-BQtwKL5IISNSBW-128" value="" style="whiteSpace=wrap;html=1;aspect=fixed;fontFamily=Times New Roman;fontSize=16;" vertex="1" parent="1">
          <mxGeometry x="257" y="650" width="80" height="80" as="geometry" />
        </mxCell>
        <mxCell id="tijTf-BQtwKL5IISNSBW-129" value="Phòng" style="text;html=1;strokeColor=none;fillColor=none;align=center;verticalAlign=middle;whiteSpace=wrap;rounded=0;fontFamily=Times New Roman;fontSize=16;" vertex="1" parent="1">
          <mxGeometry x="257" y="675" width="60" height="30" as="geometry" />
        </mxCell>
        <mxCell id="tijTf-BQtwKL5IISNSBW-151" style="edgeStyle=none;rounded=0;orthogonalLoop=1;jettySize=auto;html=1;fontFamily=Times New Roman;fontSize=16;" edge="1" parent="1" source="tijTf-BQtwKL5IISNSBW-130" target="tijTf-BQtwKL5IISNSBW-132">
          <mxGeometry relative="1" as="geometry" />
        </mxCell>
        <mxCell id="tijTf-BQtwKL5IISNSBW-130" value="" style="rhombus;whiteSpace=wrap;html=1;fontFamily=Times New Roman;fontSize=16;" vertex="1" parent="1">
          <mxGeometry x="250" y="750" width="80" height="60" as="geometry" />
        </mxCell>
        <mxCell id="tijTf-BQtwKL5IISNSBW-131" value="Có" style="text;html=1;strokeColor=none;fillColor=none;align=center;verticalAlign=middle;whiteSpace=wrap;rounded=0;fontFamily=Times New Roman;fontSize=16;" vertex="1" parent="1">
          <mxGeometry x="257" y="765" width="60" height="30" as="geometry" />
        </mxCell>
        <mxCell id="tijTf-BQtwKL5IISNSBW-132" value="" style="whiteSpace=wrap;html=1;aspect=fixed;fontFamily=Times New Roman;fontSize=16;" vertex="1" parent="1">
          <mxGeometry x="265" y="845" width="80" height="80" as="geometry" />
        </mxCell>
        <mxCell id="tijTf-BQtwKL5IISNSBW-133" value="Giường" style="text;html=1;strokeColor=none;fillColor=none;align=center;verticalAlign=middle;whiteSpace=wrap;rounded=0;fontFamily=Times New Roman;fontSize=16;" vertex="1" parent="1">
          <mxGeometry x="273" y="860" width="60" height="30" as="geometry" />
        </mxCell>
        <mxCell id="tijTf-BQtwKL5IISNSBW-147" style="edgeStyle=none;rounded=0;orthogonalLoop=1;jettySize=auto;html=1;entryX=0.438;entryY=0.063;entryDx=0;entryDy=0;entryPerimeter=0;fontFamily=Times New Roman;fontSize=16;" edge="1" parent="1" source="tijTf-BQtwKL5IISNSBW-143" target="tijTf-BQtwKL5IISNSBW-20">
          <mxGeometry relative="1" as="geometry" />
        </mxCell>
        <mxCell id="tijTf-BQtwKL5IISNSBW-143" value="" style="rhombus;whiteSpace=wrap;html=1;fontFamily=Times New Roman;fontSize=16;" vertex="1" parent="1">
          <mxGeometry x="320" y="349" width="80" height="80" as="geometry" />
        </mxCell>
        <mxCell id="tijTf-BQtwKL5IISNSBW-144" value="Lập" style="text;html=1;strokeColor=none;fillColor=none;align=center;verticalAlign=middle;whiteSpace=wrap;rounded=0;fontFamily=Times New Roman;fontSize=16;" vertex="1" parent="1">
          <mxGeometry x="333" y="365" width="60" height="30" as="geometry" />
        </mxCell>
        <mxCell id="tijTf-BQtwKL5IISNSBW-145" value="Toa thuốc" style="text;html=1;align=center;verticalAlign=middle;resizable=0;points=[];autosize=1;fontSize=16;fontFamily=Times New Roman;" vertex="1" parent="1">
          <mxGeometry x="485" y="330" width="80" height="20" as="geometry" />
        </mxCell>
        <mxCell id="tijTf-BQtwKL5IISNSBW-153" style="edgeStyle=none;rounded=0;orthogonalLoop=1;jettySize=auto;html=1;exitX=1;exitY=1;exitDx=0;exitDy=0;entryX=0.883;entryY=1.083;entryDx=0;entryDy=0;entryPerimeter=0;fontFamily=Times New Roman;fontSize=16;" edge="1" parent="1" source="tijTf-BQtwKL5IISNSBW-120" target="tijTf-BQtwKL5IISNSBW-120">
          <mxGeometry relative="1" as="geometry" />
        </mxCell>
        <mxCell id="tijTf-BQtwKL5IISNSBW-154" value="" style="rhombus;whiteSpace=wrap;html=1;fontFamily=Times New Roman;fontSize=16;" vertex="1" parent="1">
          <mxGeometry x="370" y="294" width="80" height="55" as="geometry" />
        </mxCell>
        <mxCell id="tijTf-BQtwKL5IISNSBW-159" style="edgeStyle=none;rounded=0;orthogonalLoop=1;jettySize=auto;html=1;entryX=0.063;entryY=0.375;entryDx=0;entryDy=0;entryPerimeter=0;fontFamily=Times New Roman;fontSize=16;" edge="1" parent="1" source="tijTf-BQtwKL5IISNSBW-155" target="tijTf-BQtwKL5IISNSBW-156">
          <mxGeometry relative="1" as="geometry" />
        </mxCell>
        <mxCell id="tijTf-BQtwKL5IISNSBW-155" value="Lập" style="text;html=1;strokeColor=none;fillColor=none;align=center;verticalAlign=middle;whiteSpace=wrap;rounded=0;fontFamily=Times New Roman;fontSize=16;" vertex="1" parent="1">
          <mxGeometry x="380" y="306.5" width="60" height="30" as="geometry" />
        </mxCell>
        <mxCell id="tijTf-BQtwKL5IISNSBW-162" style="edgeStyle=none;rounded=0;orthogonalLoop=1;jettySize=auto;html=1;entryX=0.5;entryY=1;entryDx=0;entryDy=0;fontFamily=Times New Roman;fontSize=16;" edge="1" parent="1" source="tijTf-BQtwKL5IISNSBW-156" target="tijTf-BQtwKL5IISNSBW-7">
          <mxGeometry relative="1" as="geometry" />
        </mxCell>
        <mxCell id="tijTf-BQtwKL5IISNSBW-163" style="edgeStyle=none;rounded=0;orthogonalLoop=1;jettySize=auto;html=1;entryX=1;entryY=0.25;entryDx=0;entryDy=0;fontFamily=Times New Roman;fontSize=16;" edge="1" parent="1" source="tijTf-BQtwKL5IISNSBW-156" target="tijTf-BQtwKL5IISNSBW-20">
          <mxGeometry relative="1" as="geometry" />
        </mxCell>
        <mxCell id="tijTf-BQtwKL5IISNSBW-156" value="" style="whiteSpace=wrap;html=1;aspect=fixed;fontFamily=Times New Roman;fontSize=16;" vertex="1" parent="1">
          <mxGeometry x="485" y="300" width="75" height="75" as="geometry" />
        </mxCell>
        <mxCell id="tijTf-BQtwKL5IISNSBW-160" value="" style="rhombus;whiteSpace=wrap;html=1;fontFamily=Times New Roman;fontSize=16;" vertex="1" parent="1">
          <mxGeometry x="485" y="299" width="80" height="80" as="geometry" />
        </mxCell>
        <mxCell id="tijTf-BQtwKL5IISNSBW-168" style="edgeStyle=none;rounded=0;orthogonalLoop=1;jettySize=auto;html=1;entryX=0;entryY=1;entryDx=0;entryDy=0;fontFamily=Times New Roman;fontSize=16;" edge="1" parent="1" source="tijTf-BQtwKL5IISNSBW-161">
          <mxGeometry relative="1" as="geometry">
            <mxPoint x="586.5900974233027" y="308.4099025766973" as="targetPoint" />
          </mxGeometry>
        </mxCell>
        <mxCell id="tijTf-BQtwKL5IISNSBW-161" value="Toa thuốc" style="text;html=1;strokeColor=none;fillColor=none;align=center;verticalAlign=middle;whiteSpace=wrap;rounded=0;fontFamily=Times New Roman;fontSize=16;" vertex="1" parent="1">
          <mxGeometry x="495" y="325" width="60" height="30" as="geometry" />
        </mxCell>
        <mxCell id="tijTf-BQtwKL5IISNSBW-178" style="edgeStyle=none;rounded=0;orthogonalLoop=1;jettySize=auto;html=1;entryX=0;entryY=0;entryDx=0;entryDy=0;fontFamily=Times New Roman;fontSize=16;" edge="1" parent="1" source="tijTf-BQtwKL5IISNSBW-175" target="tijTf-BQtwKL5IISNSBW-132">
          <mxGeometry relative="1" as="geometry" />
        </mxCell>
        <mxCell id="tijTf-BQtwKL5IISNSBW-175" value="" style="rhombus;whiteSpace=wrap;html=1;fontFamily=Times New Roman;fontSize=16;" vertex="1" parent="1">
          <mxGeometry x="80" y="564" width="80" height="80" as="geometry" />
        </mxCell>
        <mxCell id="tijTf-BQtwKL5IISNSBW-176" value="Nằm" style="text;html=1;strokeColor=none;fillColor=none;align=center;verticalAlign=middle;whiteSpace=wrap;rounded=0;fontFamily=Times New Roman;fontSize=16;" vertex="1" parent="1">
          <mxGeometry x="90" y="585" width="60" height="30" as="geometry" />
        </mxCell>
        <mxCell id="tijTf-BQtwKL5IISNSBW-191" style="edgeStyle=none;rounded=0;orthogonalLoop=1;jettySize=auto;html=1;entryX=1;entryY=0.5;entryDx=0;entryDy=0;fontFamily=Times New Roman;fontSize=16;" edge="1" parent="1" source="tijTf-BQtwKL5IISNSBW-179" target="tijTf-BQtwKL5IISNSBW-189">
          <mxGeometry relative="1" as="geometry" />
        </mxCell>
        <mxCell id="tijTf-BQtwKL5IISNSBW-217" style="edgeStyle=none;rounded=0;orthogonalLoop=1;jettySize=auto;html=1;entryX=0.5;entryY=1;entryDx=0;entryDy=0;fontFamily=Times New Roman;fontSize=16;" edge="1" parent="1" source="tijTf-BQtwKL5IISNSBW-179" target="tijTf-BQtwKL5IISNSBW-215">
          <mxGeometry relative="1" as="geometry" />
        </mxCell>
        <mxCell id="tijTf-BQtwKL5IISNSBW-234" style="edgeStyle=none;rounded=0;orthogonalLoop=1;jettySize=auto;html=1;fontFamily=Times New Roman;fontSize=16;" edge="1" parent="1" source="tijTf-BQtwKL5IISNSBW-179" target="tijTf-BQtwKL5IISNSBW-232">
          <mxGeometry relative="1" as="geometry" />
        </mxCell>
        <mxCell id="tijTf-BQtwKL5IISNSBW-179" value="" style="whiteSpace=wrap;html=1;aspect=fixed;fontFamily=Times New Roman;fontSize=16;" vertex="1" parent="1">
          <mxGeometry x="430" y="960" width="80" height="80" as="geometry" />
        </mxCell>
        <mxCell id="tijTf-BQtwKL5IISNSBW-180" value="Nhân viên" style="text;html=1;strokeColor=none;fillColor=none;align=center;verticalAlign=middle;whiteSpace=wrap;rounded=0;fontFamily=Times New Roman;fontSize=16;" vertex="1" parent="1">
          <mxGeometry x="440" y="970" width="60" height="30" as="geometry" />
        </mxCell>
        <mxCell id="tijTf-BQtwKL5IISNSBW-181" value="" style="whiteSpace=wrap;html=1;aspect=fixed;fontFamily=Times New Roman;fontSize=16;container=1;" vertex="1" parent="1">
          <mxGeometry x="644" y="561" width="76" height="76" as="geometry" />
        </mxCell>
        <mxCell id="tijTf-BQtwKL5IISNSBW-182" value="" style="rhombus;whiteSpace=wrap;html=1;fontFamily=Times New Roman;fontSize=16;" vertex="1" parent="1">
          <mxGeometry x="20" y="644" width="80" height="80" as="geometry" />
        </mxCell>
        <mxCell id="tijTf-BQtwKL5IISNSBW-187" style="edgeStyle=none;rounded=0;orthogonalLoop=1;jettySize=auto;html=1;fontFamily=Times New Roman;fontSize=16;" edge="1" parent="1" source="tijTf-BQtwKL5IISNSBW-183" target="tijTf-BQtwKL5IISNSBW-184">
          <mxGeometry relative="1" as="geometry" />
        </mxCell>
        <mxCell id="tijTf-BQtwKL5IISNSBW-183" value="Tạm ứng" style="text;html=1;strokeColor=none;fillColor=none;align=center;verticalAlign=middle;whiteSpace=wrap;rounded=0;fontFamily=Times New Roman;fontSize=16;" vertex="1" parent="1">
          <mxGeometry x="30" y="669" width="60" height="30" as="geometry" />
        </mxCell>
        <mxCell id="tijTf-BQtwKL5IISNSBW-184" value="" style="whiteSpace=wrap;html=1;aspect=fixed;fontFamily=Times New Roman;fontSize=16;" vertex="1" parent="1">
          <mxGeometry x="30" y="835" width="80" height="80" as="geometry" />
        </mxCell>
        <mxCell id="tijTf-BQtwKL5IISNSBW-185" value="Phiếu tạm ứng" style="text;html=1;strokeColor=none;fillColor=none;align=center;verticalAlign=middle;whiteSpace=wrap;rounded=0;fontFamily=Times New Roman;fontSize=16;" vertex="1" parent="1">
          <mxGeometry x="40" y="860" width="60" height="30" as="geometry" />
        </mxCell>
        <mxCell id="tijTf-BQtwKL5IISNSBW-188" value="Giấy ra viện" style="text;html=1;strokeColor=none;fillColor=none;align=center;verticalAlign=middle;whiteSpace=wrap;rounded=0;fontFamily=Times New Roman;fontSize=16;" vertex="1" parent="1">
          <mxGeometry x="650" y="580" width="60" height="30" as="geometry" />
        </mxCell>
        <mxCell id="tijTf-BQtwKL5IISNSBW-189" value="" style="rhombus;whiteSpace=wrap;html=1;fontFamily=Times New Roman;fontSize=16;" vertex="1" parent="1">
          <mxGeometry x="173" y="970" width="80" height="80" as="geometry" />
        </mxCell>
        <mxCell id="tijTf-BQtwKL5IISNSBW-192" style="edgeStyle=none;rounded=0;orthogonalLoop=1;jettySize=auto;html=1;fontFamily=Times New Roman;fontSize=16;" edge="1" parent="1" source="tijTf-BQtwKL5IISNSBW-190">
          <mxGeometry relative="1" as="geometry">
            <mxPoint x="90" y="920" as="targetPoint" />
          </mxGeometry>
        </mxCell>
        <mxCell id="tijTf-BQtwKL5IISNSBW-190" value="Lập" style="text;html=1;strokeColor=none;fillColor=none;align=center;verticalAlign=middle;whiteSpace=wrap;rounded=0;fontFamily=Times New Roman;fontSize=16;" vertex="1" parent="1">
          <mxGeometry x="183" y="995" width="60" height="30" as="geometry" />
        </mxCell>
        <mxCell id="tijTf-BQtwKL5IISNSBW-193" value="" style="ellipse;whiteSpace=wrap;html=1;aspect=fixed;fontFamily=Times New Roman;fontSize=16;" vertex="1" parent="1">
          <mxGeometry x="468" y="478" width="62" height="62" as="geometry" />
        </mxCell>
        <mxCell id="tijTf-BQtwKL5IISNSBW-194" value="" style="ellipse;whiteSpace=wrap;html=1;aspect=fixed;fontFamily=Times New Roman;fontSize=16;" vertex="1" parent="1">
          <mxGeometry x="460" y="550" width="60" height="60" as="geometry" />
        </mxCell>
        <mxCell id="tijTf-BQtwKL5IISNSBW-195" value="" style="ellipse;whiteSpace=wrap;html=1;aspect=fixed;fontFamily=Times New Roman;fontSize=16;" vertex="1" parent="1">
          <mxGeometry x="130" y="835" width="55" height="55" as="geometry" />
        </mxCell>
        <mxCell id="tijTf-BQtwKL5IISNSBW-196" value="Ngày" style="text;html=1;strokeColor=none;fillColor=none;align=center;verticalAlign=middle;whiteSpace=wrap;rounded=0;fontFamily=Times New Roman;fontSize=16;" vertex="1" parent="1">
          <mxGeometry x="127.5" y="845" width="60" height="30" as="geometry" />
        </mxCell>
        <mxCell id="tijTf-BQtwKL5IISNSBW-197" value="Quá trình điều trị" style="text;html=1;strokeColor=none;fillColor=none;align=center;verticalAlign=middle;whiteSpace=wrap;rounded=0;fontFamily=Times New Roman;fontSize=16;" vertex="1" parent="1">
          <mxGeometry x="470" y="486.5" width="60" height="36.5" as="geometry" />
        </mxCell>
        <mxCell id="tijTf-BQtwKL5IISNSBW-198" value="Căn bệnh điều trị" style="text;html=1;strokeColor=none;fillColor=none;align=center;verticalAlign=middle;whiteSpace=wrap;rounded=0;fontFamily=Times New Roman;fontSize=16;" vertex="1" parent="1">
          <mxGeometry x="460" y="564" width="60" height="30" as="geometry" />
        </mxCell>
        <mxCell id="tijTf-BQtwKL5IISNSBW-201" value="" style="ellipse;whiteSpace=wrap;html=1;aspect=fixed;fontFamily=Times New Roman;fontSize=16;" vertex="1" parent="1">
          <mxGeometry x="190" y="505" width="45" height="45" as="geometry" />
        </mxCell>
        <mxCell id="tijTf-BQtwKL5IISNSBW-202" value="Khoa" style="text;html=1;strokeColor=none;fillColor=none;align=center;verticalAlign=middle;whiteSpace=wrap;rounded=0;fontFamily=Times New Roman;fontSize=16;" vertex="1" parent="1">
          <mxGeometry x="185" y="508" width="60" height="30" as="geometry" />
        </mxCell>
        <mxCell id="tijTf-BQtwKL5IISNSBW-203" value="" style="ellipse;whiteSpace=wrap;html=1;aspect=fixed;fontFamily=Times New Roman;fontSize=16;" vertex="1" parent="1">
          <mxGeometry x="113.5" y="508" width="53" height="53" as="geometry" />
        </mxCell>
        <mxCell id="tijTf-BQtwKL5IISNSBW-204" value="Căn bệnh dự đoán" style="text;html=1;strokeColor=none;fillColor=none;align=center;verticalAlign=middle;whiteSpace=wrap;rounded=0;fontFamily=Times New Roman;fontSize=16;" vertex="1" parent="1">
          <mxGeometry x="110" y="512.5" width="60" height="30" as="geometry" />
        </mxCell>
        <mxCell id="tijTf-BQtwKL5IISNSBW-207" value="" style="ellipse;whiteSpace=wrap;html=1;aspect=fixed;fontFamily=Times New Roman;fontSize=16;" vertex="1" parent="1">
          <mxGeometry x="10" y="438" width="80" height="80" as="geometry" />
        </mxCell>
        <mxCell id="tijTf-BQtwKL5IISNSBW-208" value="" style="edgeStyle=none;rounded=0;orthogonalLoop=1;jettySize=auto;html=1;entryX=0.5;entryY=0;entryDx=0;entryDy=0;fontFamily=Times New Roman;fontSize=16;endArrow=none;" edge="1" parent="1" source="tijTf-BQtwKL5IISNSBW-2" target="tijTf-BQtwKL5IISNSBW-207">
          <mxGeometry relative="1" as="geometry">
            <mxPoint x="36.54702970297035" y="265" as="sourcePoint" />
            <mxPoint x="60" y="644" as="targetPoint" />
          </mxGeometry>
        </mxCell>
        <mxCell id="tijTf-BQtwKL5IISNSBW-209" value="Thông tin bệnh nhân" style="text;html=1;strokeColor=none;fillColor=none;align=center;verticalAlign=middle;whiteSpace=wrap;rounded=0;fontFamily=Times New Roman;fontSize=16;" vertex="1" parent="1">
          <mxGeometry x="20" y="463" width="60" height="30" as="geometry" />
        </mxCell>
        <mxCell id="tijTf-BQtwKL5IISNSBW-230" style="edgeStyle=none;rounded=0;orthogonalLoop=1;jettySize=auto;html=1;fontFamily=Times New Roman;fontSize=16;" edge="1" parent="1" source="tijTf-BQtwKL5IISNSBW-215" target="tijTf-BQtwKL5IISNSBW-226">
          <mxGeometry relative="1" as="geometry" />
        </mxCell>
        <mxCell id="tijTf-BQtwKL5IISNSBW-215" value="" style="rhombus;whiteSpace=wrap;html=1;fontFamily=Times New Roman;fontSize=16;" vertex="1" parent="1">
          <mxGeometry x="414" y="650" width="80" height="90" as="geometry" />
        </mxCell>
        <mxCell id="tijTf-BQtwKL5IISNSBW-218" style="edgeStyle=none;rounded=0;orthogonalLoop=1;jettySize=auto;html=1;entryX=1;entryY=0.5;entryDx=0;entryDy=0;fontFamily=Times New Roman;fontSize=16;" edge="1" parent="1" source="tijTf-BQtwKL5IISNSBW-216" target="tijTf-BQtwKL5IISNSBW-128">
          <mxGeometry relative="1" as="geometry" />
        </mxCell>
        <mxCell id="tijTf-BQtwKL5IISNSBW-221" style="edgeStyle=none;rounded=0;orthogonalLoop=1;jettySize=auto;html=1;fontFamily=Times New Roman;fontSize=16;" edge="1" parent="1" source="tijTf-BQtwKL5IISNSBW-216">
          <mxGeometry relative="1" as="geometry">
            <mxPoint x="750" y="10" as="targetPoint" />
          </mxGeometry>
        </mxCell>
        <mxCell id="tijTf-BQtwKL5IISNSBW-216" value="Thay đổi giá&lt;br&gt;" style="text;html=1;strokeColor=none;fillColor=none;align=center;verticalAlign=middle;whiteSpace=wrap;rounded=0;fontFamily=Times New Roman;fontSize=16;" vertex="1" parent="1">
          <mxGeometry x="425" y="685" width="60" height="30" as="geometry" />
        </mxCell>
        <mxCell id="tijTf-BQtwKL5IISNSBW-220" value="" style="endArrow=none;html=1;rounded=0;fontFamily=Times New Roman;fontSize=16;" edge="1" parent="1">
          <mxGeometry width="50" height="50" relative="1" as="geometry">
            <mxPoint x="340" y="390" as="sourcePoint" />
            <mxPoint x="390" y="340" as="targetPoint" />
          </mxGeometry>
        </mxCell>
        <mxCell id="tijTf-BQtwKL5IISNSBW-222" style="edgeStyle=none;rounded=0;orthogonalLoop=1;jettySize=auto;html=1;exitX=1;exitY=0.5;exitDx=0;exitDy=0;entryX=1;entryY=0.25;entryDx=0;entryDy=0;fontFamily=Times New Roman;fontSize=16;" edge="1" parent="1" source="tijTf-BQtwKL5IISNSBW-216" target="tijTf-BQtwKL5IISNSBW-216">
          <mxGeometry relative="1" as="geometry" />
        </mxCell>
        <mxCell id="tijTf-BQtwKL5IISNSBW-223" value="" style="rhombus;whiteSpace=wrap;html=1;fontFamily=Times New Roman;fontSize=16;" vertex="1" parent="1">
          <mxGeometry x="596" y="265" width="80" height="80" as="geometry" />
        </mxCell>
        <mxCell id="tijTf-BQtwKL5IISNSBW-228" style="edgeStyle=none;rounded=0;orthogonalLoop=1;jettySize=auto;html=1;entryX=0;entryY=0.5;entryDx=0;entryDy=0;fontFamily=Times New Roman;fontSize=16;" edge="1" parent="1" source="tijTf-BQtwKL5IISNSBW-224" target="tijTf-BQtwKL5IISNSBW-226">
          <mxGeometry relative="1" as="geometry" />
        </mxCell>
        <mxCell id="tijTf-BQtwKL5IISNSBW-224" value="Bao gồm" style="text;html=1;strokeColor=none;fillColor=none;align=center;verticalAlign=middle;whiteSpace=wrap;rounded=0;fontFamily=Times New Roman;fontSize=16;" vertex="1" parent="1">
          <mxGeometry x="608" y="285" width="60" height="30" as="geometry" />
        </mxCell>
        <mxCell id="tijTf-BQtwKL5IISNSBW-225" style="edgeStyle=none;rounded=0;orthogonalLoop=1;jettySize=auto;html=1;exitX=0.5;exitY=1;exitDx=0;exitDy=0;fontFamily=Times New Roman;fontSize=16;" edge="1" parent="1" source="tijTf-BQtwKL5IISNSBW-224" target="tijTf-BQtwKL5IISNSBW-224">
          <mxGeometry relative="1" as="geometry" />
        </mxCell>
        <mxCell id="tijTf-BQtwKL5IISNSBW-226" value="" style="whiteSpace=wrap;html=1;aspect=fixed;fontFamily=Times New Roman;fontSize=16;" vertex="1" parent="1">
          <mxGeometry x="720" y="248" width="80" height="80" as="geometry" />
        </mxCell>
        <mxCell id="tijTf-BQtwKL5IISNSBW-227" value="Thuốc" style="text;html=1;strokeColor=none;fillColor=none;align=center;verticalAlign=middle;whiteSpace=wrap;rounded=0;fontFamily=Times New Roman;fontSize=16;" vertex="1" parent="1">
          <mxGeometry x="730" y="265" width="60" height="30" as="geometry" />
        </mxCell>
        <mxCell id="tijTf-BQtwKL5IISNSBW-235" style="edgeStyle=none;rounded=0;orthogonalLoop=1;jettySize=auto;html=1;entryX=0.5;entryY=1;entryDx=0;entryDy=0;fontFamily=Times New Roman;fontSize=16;" edge="1" parent="1" source="tijTf-BQtwKL5IISNSBW-232" target="tijTf-BQtwKL5IISNSBW-181">
          <mxGeometry relative="1" as="geometry" />
        </mxCell>
        <mxCell id="tijTf-BQtwKL5IISNSBW-232" value="" style="rhombus;whiteSpace=wrap;html=1;fontFamily=Times New Roman;fontSize=16;" vertex="1" parent="1">
          <mxGeometry x="596" y="770" width="80" height="75" as="geometry" />
        </mxCell>
        <mxCell id="tijTf-BQtwKL5IISNSBW-233" value="Lập" style="text;html=1;strokeColor=none;fillColor=none;align=center;verticalAlign=middle;whiteSpace=wrap;rounded=0;fontFamily=Times New Roman;fontSize=16;" vertex="1" parent="1">
          <mxGeometry x="606" y="790" width="60" height="30" as="geometry" />
        </mxCell>
        <mxCell id="tijTf-BQtwKL5IISNSBW-242" style="edgeStyle=none;rounded=0;orthogonalLoop=1;jettySize=auto;html=1;entryX=0.005;entryY=0.656;entryDx=0;entryDy=0;entryPerimeter=0;fontFamily=Times New Roman;fontSize=16;" edge="1" parent="1" source="tijTf-BQtwKL5IISNSBW-236" target="tijTf-BQtwKL5IISNSBW-238">
          <mxGeometry relative="1" as="geometry" />
        </mxCell>
        <mxCell id="tijTf-BQtwKL5IISNSBW-236" value="" style="rhombus;whiteSpace=wrap;html=1;fontFamily=Times New Roman;fontSize=16;" vertex="1" parent="1">
          <mxGeometry x="120" y="112.5" width="80" height="85" as="geometry" />
        </mxCell>
        <mxCell id="tijTf-BQtwKL5IISNSBW-237" value="Có" style="text;html=1;strokeColor=none;fillColor=none;align=center;verticalAlign=middle;whiteSpace=wrap;rounded=0;fontFamily=Times New Roman;fontSize=16;" vertex="1" parent="1">
          <mxGeometry x="130" y="140" width="60" height="30" as="geometry" />
        </mxCell>
        <mxCell id="tijTf-BQtwKL5IISNSBW-238" value="" style="whiteSpace=wrap;html=1;aspect=fixed;fontFamily=Times New Roman;fontSize=16;" vertex="1" parent="1">
          <mxGeometry x="220" y="87.5" width="80" height="80" as="geometry" />
        </mxCell>
        <mxCell id="tijTf-BQtwKL5IISNSBW-240" value="BHYT" style="text;html=1;strokeColor=none;fillColor=none;align=center;verticalAlign=middle;whiteSpace=wrap;rounded=0;fontFamily=Times New Roman;fontSize=16;" vertex="1" parent="1">
          <mxGeometry x="230" y="112.5" width="60" height="30" as="geometry" />
        </mxCell>
      </root>
    </mxGraphModel>
  </diagram>
</mxfile>
